REM DIRINDEX 1\2,1\4,1\5,1\6,1\7,1\3\8,1\3\9,1\3\10
REM DIRNAME cjc113,folder01,folder02,folder03,folder04,folder05,folder06,folder07,folder08,folder09
TITLE ""
FILE "DB4500_5th_6C_31.mp3" MP3
  TRACK 01 AUDIO
    TITLE "8:cjc113_4517"
    INDEX 01 00:00:00
  TRACK 02 AUDIO
    TITLE "0:"
    INDEX 01 00:01:09
  TRACK 03 AUDIO
    TITLE "9:cjc113_4518"
    INDEX 01 00:01:26
  TRACK 04 AUDIO
    TITLE "0:"
    INDEX 01 00:02:26
  TRACK 05 AUDIO
    TITLE "10:cjc113_4519"
    INDEX 01 00:02:42
  TRACK 06 AUDIO
    TITLE "0:"
    INDEX 01 00:06:12
  TRACK 07 AUDIO
    TITLE "8:cjc113_4520"
    INDEX 01 00:06:49
  TRACK 08 AUDIO
    TITLE "0:"
    INDEX 01 00:08:05
  TRACK 09 AUDIO
    TITLE "9:cjc113_4521"
    INDEX 01 00:08:24
  TRACK 10 AUDIO
    TITLE "0:"
    INDEX 01 00:09:40
  TRACK 11 AUDIO
    TITLE "10:cjc113_4522"
    INDEX 01 00:09:59
  TRACK 12 AUDIO
    TITLE "0:"
    INDEX 01 00:13:47
  TRACK 13 AUDIO
    TITLE "8:cjc113_4523"
    INDEX 01 00:14:09
  TRACK 14 AUDIO
    TITLE "0:"
    INDEX 01 00:15:15
  TRACK 15 AUDIO
    TITLE "9:cjc113_4524"
    INDEX 01 00:15:32
  TRACK 16 AUDIO
    TITLE "0:"
    INDEX 01 00:16:61
  TRACK 17 AUDIO
    TITLE "10:cjc113_4525"
    INDEX 01 00:17:06
  TRACK 18 AUDIO
    TITLE "0:"
    INDEX 01 00:20:47
  TRACK 19 AUDIO
    TITLE "8:cjc113_4526"
    INDEX 01 00:21:11
  TRACK 20 AUDIO
    TITLE "0:"
    INDEX 01 00:22:25
  TRACK 21 AUDIO
    TITLE "9:cjc113_4527"
    INDEX 01 00:22:38
  TRACK 22 AUDIO
    TITLE "0:"
    INDEX 01 00:23:61
  TRACK 23 AUDIO
    TITLE "10:cjc113_4528"
    INDEX 01 00:24:04
  TRACK 24 AUDIO
    TITLE "0:"
    INDEX 01 00:27:43
  TRACK 25 AUDIO
    TITLE "8:cjc113_4529"
    INDEX 01 00:28:12
  TRACK 26 AUDIO
    TITLE "0:"
    INDEX 01 00:29:23
  TRACK 27 AUDIO
    TITLE "9:cjc113_4530"
    INDEX 01 00:29:38
  TRACK 28 AUDIO
    TITLE "0:"
    INDEX 01 00:30:65
  TRACK 29 AUDIO
    TITLE "10:cjc113_4531"
    INDEX 01 00:31:06
  TRACK 30 AUDIO
    TITLE "0:"
    INDEX 01 00:35:45
  TRACK 31 AUDIO
    TITLE "8:cjc113_4532"
    INDEX 01 00:36:09
  TRACK 32 AUDIO
    TITLE "0:"
    INDEX 01 00:37:36
  TRACK 33 AUDIO
    TITLE "9:cjc113_4533"
    INDEX 01 00:37:54
  TRACK 34 AUDIO
    TITLE "0:"
    INDEX 01 00:39:03
  TRACK 35 AUDIO
    TITLE "10:cjc113_4534"
    INDEX 01 00:39:21
  TRACK 36 AUDIO
    TITLE "0:"
    INDEX 01 00:42:00
  TRACK 37 AUDIO
    TITLE "8:cjc113_4535"
    INDEX 01 00:42:39
  TRACK 38 AUDIO
    TITLE "0:"
    INDEX 01 00:43:44
  TRACK 39 AUDIO
    TITLE "9:cjc113_4536"
    INDEX 01 00:43:62
  TRACK 40 AUDIO
    TITLE "0:"
    INDEX 01 00:45:08
  TRACK 41 AUDIO
    TITLE "10:cjc113_4537"
    INDEX 01 00:45:20
  TRACK 42 AUDIO
    TITLE "0:"
    INDEX 01 00:49:08
  TRACK 43 AUDIO
    TITLE "8:cjc113_4538"
    INDEX 01 00:49:45
  TRACK 44 AUDIO
    TITLE "0:"
    INDEX 01 00:50:56
  TRACK 45 AUDIO
    TITLE "9:cjc113_4539"
    INDEX 01 00:51:01
  TRACK 46 AUDIO
    TITLE "0:"
    INDEX 01 00:52:12
  TRACK 47 AUDIO
    TITLE "10:cjc113_4540"
    INDEX 01 00:52:28
  TRACK 48 AUDIO
    TITLE "0:"
    INDEX 01 00:55:42
  TRACK 49 AUDIO
    TITLE "8:cjc113_4541"
    INDEX 01 00:56:14
  TRACK 50 AUDIO
    TITLE "0:"
    INDEX 01 00:57:27
  TRACK 51 AUDIO
    TITLE "9:cjc113_4542"
    INDEX 01 00:57:41
  TRACK 52 AUDIO
    TITLE "0:"
    INDEX 01 00:59:18
  TRACK 53 AUDIO
    TITLE "10:cjc113_4543"
    INDEX 01 00:59:32
  TRACK 54 AUDIO
    TITLE "0:"
    INDEX 01 01:01:66
  TRACK 55 AUDIO
    TITLE "8:cjc113_4544"
    INDEX 01 01:02:32
  TRACK 56 AUDIO
    TITLE "0:"
    INDEX 01 01:03:43
  TRACK 57 AUDIO
    TITLE "9:cjc113_4545"
    INDEX 01 01:03:57
  TRACK 58 AUDIO
    TITLE "0:"
    INDEX 01 01:05:22
  TRACK 59 AUDIO
    TITLE "10:cjc113_4546"
    INDEX 01 01:05:40
  TRACK 60 AUDIO
    TITLE "0:"
    INDEX 01 01:07:51
  TRACK 61 AUDIO
    TITLE "8:cjc113_4547"
    INDEX 01 01:08:15
  TRACK 62 AUDIO
    TITLE "0:"
    INDEX 01 01:09:26
  TRACK 63 AUDIO
    TITLE "9:cjc113_4548"
    INDEX 01 01:09:40
  TRACK 64 AUDIO
    TITLE "0:"
    INDEX 01 01:10:59
  TRACK 65 AUDIO
    TITLE "10:cjc113_4549"
    INDEX 01 01:11:03
  TRACK 66 AUDIO
    TITLE "0:"
    INDEX 01 01:14:57
  TRACK 67 AUDIO
    TITLE "8:cjc113_4550"
    INDEX 01 01:15:23
  TRACK 68 AUDIO
    TITLE "0:"
    INDEX 01 01:16:28
  TRACK 69 AUDIO
    TITLE "9:cjc113_4551"
    INDEX 01 01:16:44
  TRACK 70 AUDIO
    TITLE "0:"
    INDEX 01 01:17:57
  TRACK 71 AUDIO
    TITLE "10:cjc113_4552"
    INDEX 01 01:17:73
  TRACK 72 AUDIO
    TITLE "0:"
    INDEX 01 01:20:48
  TRACK 73 AUDIO
    TITLE "8:cjc113_4553"
    INDEX 01 01:21:14
  TRACK 74 AUDIO
    TITLE "0:"
    INDEX 01 01:22:23
  TRACK 75 AUDIO
    TITLE "9:cjc113_4554"
    INDEX 01 01:22:42
  TRACK 76 AUDIO
    TITLE "0:"
    INDEX 01 01:23:54
  TRACK 77 AUDIO
    TITLE "10:cjc113_4555"
    INDEX 01 01:23:71
  TRACK 78 AUDIO
    TITLE "0:"
    INDEX 01 01:26:15
  TRACK 79 AUDIO
    TITLE "8:cjc113_4556"
    INDEX 01 01:26:56
  TRACK 80 AUDIO
    TITLE "0:"
    INDEX 01 01:27:71
  TRACK 81 AUDIO
    TITLE "9:cjc113_4557"
    INDEX 01 01:28:12
  TRACK 82 AUDIO
    TITLE "0:"
    INDEX 01 01:29:15
  TRACK 83 AUDIO
    TITLE "10:cjc113_4558"
    INDEX 01 01:29:35
  TRACK 84 AUDIO
    TITLE "0:"
    INDEX 01 01:31:55
